<svg width="69" height="22" viewBox="0 0 69 22" fill="none" xmlns="http://www.w3.org/2000/svg">
<path d="M11.6838 22C10.0889 22 8.60374 21.7352 7.2282 21.2056C5.87254 20.6556 4.68643 19.8917 3.66972 18.9139C2.6729 17.9158 1.89542 16.7444 1.33728 15.4C0.779138 14.0555 0.5 12.5889 0.5 11C0.5 9.41111 0.779138 7.94444 1.33728 6.6C1.89542 5.25555 2.68292 4.09444 3.69963 3.11667C4.71633 2.11852 5.90246 1.35464 7.25811 0.825002C8.61377 0.275 10.0989 0 11.7137 0C13.4282 0 14.993 0.305555 16.4085 0.916669C17.8239 1.50741 19.02 2.39352 19.9968 3.575L17.485 5.98889C16.7274 5.1537 15.8802 4.53241 14.9432 4.125C14.0062 3.69722 12.9895 3.48333 11.8931 3.48333C10.7967 3.48333 9.78985 3.66667 8.87287 4.03333C7.97577 4.4 7.18829 4.91944 6.51054 5.59166C5.85267 6.26389 5.33428 7.05833 4.95556 7.975C4.59672 8.89166 4.4173 9.89999 4.4173 11C4.4173 12.1 4.59672 13.1083 4.95556 14.025C5.33428 14.9417 5.85267 15.7361 6.51054 16.4083C7.18829 17.0806 7.97577 17.6 8.87287 17.9667C9.78985 18.3333 10.7967 18.5167 11.8931 18.5167C12.9895 18.5167 14.0062 18.313 14.9432 17.9056C15.8802 17.4778 16.7274 16.8361 17.485 15.9806L19.9968 18.425C19.02 19.5861 17.8239 20.4722 16.4085 21.0833C14.993 21.6944 13.4181 22 11.6838 22ZM23.7217 21.6944V0.305555H32.3338C34.1878 0.305555 35.7727 0.611114 37.0884 1.22222C38.424 1.83333 39.4508 2.70925 40.1684 3.85C40.8861 4.99074 41.2449 6.34536 41.2449 7.91389C41.2449 9.48245 40.8861 10.837 40.1684 11.9778C39.4508 13.0981 38.424 13.9639 37.0884 14.575C35.7727 15.1658 34.1878 15.4611 32.3338 15.4611H25.8747L27.6091 13.6583V21.6944H23.7217ZM37.4173 21.6944L32.1245 13.9333H36.2809L41.6038 21.6944H37.4173ZM27.6091 14.0861L25.8747 12.1917H32.1544C33.8687 12.1917 35.1546 11.8148 36.0117 11.0611C36.889 10.3075 37.3276 9.25833 37.3276 7.91389C37.3276 6.54908 36.889 5.5 36.0117 4.76667C35.1546 4.03333 33.8687 3.66667 32.1544 3.66667H25.8747L27.6091 1.71111V14.0861ZM45.5942 21.6944V0.305555H48.7938L57.9442 15.9194H56.2696L65.2705 0.305555H68.4701L68.5 21.6944H64.8219L64.792 6.20278H65.5695L57.9143 19.25H56.1799L48.4051 6.20278H49.3022V21.6944H45.5942Z" fill="white"/>
</svg>
