<svg width="18" height="19" viewBox="0 0 18 19" fill="none" xmlns="http://www.w3.org/2000/svg" stroke="#888888">
<g clip-path="url(#clip0_1_1578)">
<path fill-rule="evenodd" clip-rule="evenodd" d="M10.0122 1.93834L11.6874 5.28486C11.8515 5.6134 12.1684 5.8412 12.5359 5.89392L16.2832 6.43332C17.2091 6.56699 17.5775 7.68909 16.9075 8.33203L14.1977 10.9358C13.9314 11.1919 13.8101 11.5599 13.8731 11.9214L14.5126 15.5974C14.6701 16.5068 13.7023 17.2005 12.8747 16.7703L9.52545 15.0335C9.1971 14.8631 8.80385 14.8631 8.47455 15.0335L5.12525 16.7703C4.29771 17.2005 3.32986 16.5068 3.48831 15.5974L4.12686 11.9214C4.18986 11.5599 4.06864 11.1919 3.80233 10.9358L1.09254 8.33203C0.422489 7.68909 0.790922 6.56699 1.71678 6.43332L5.4641 5.89392C5.83158 5.8412 6.14942 5.6134 6.31359 5.28486L7.98776 1.93834C8.40201 1.11089 9.59799 1.11089 10.0122 1.93834Z" stroke-linecap="round" stroke-linejoin="round"/>
</g>
<defs>
<clipPath id="clip0_1_1578">
<rect width="18" height="18" fill="white" transform="translate(0 0.109375)"/>
</clipPath>
</defs>
</svg>
