<svg width="20" height="21" viewBox="0 0 20 21" fill="none" xmlns="http://www.w3.org/2000/svg" stroke="#888888">
<g clip-path="url(#clip0_1_1571)">
<path fill-rule="evenodd" clip-rule="evenodd" d="M14.8381 12.1067C15.4566 12.1067 15.9757 12.6172 15.8811 13.228C15.3263 16.8213 12.2502 19.4893 8.54009 19.4893C4.43536 19.4893 1.10834 16.1623 1.10834 12.0585C1.10834 8.67742 3.67693 5.52794 6.56878 4.81584C7.19018 4.66242 7.82702 5.09952 7.82702 5.73926C7.82702 10.0736 7.97272 11.1949 8.79579 11.8047C9.61886 12.4146 10.5867 12.1067 14.8381 12.1067Z" stroke-linecap="round" stroke-linejoin="round"/>
<path fill-rule="evenodd" clip-rule="evenodd" d="M18.8848 8.49723C18.934 5.71249 15.5134 1.22372 11.345 1.30091C11.0208 1.3067 10.7612 1.57688 10.7468 1.90012C10.6416 4.18986 10.7834 7.15696 10.8626 8.50205C10.8867 8.92082 11.2157 9.24986 11.6335 9.27398C13.0162 9.3531 16.0914 9.46117 18.3483 9.11959C18.6552 9.07328 18.88 8.80696 18.8848 8.49723Z" stroke-linecap="round" stroke-linejoin="round"/>
</g>
<defs>
<clipPath id="clip0_1_1571">
<rect width="20" height="20" fill="white" transform="translate(0 0.375)"/>
</clipPath>
</defs>
</svg>
