<svg width="22" height="23" viewBox="0 0 22 23" fill="none" xmlns="http://www.w3.org/2000/svg" stroke="#888888">
<g clip-path="url(#clip0_1_1508)">
<path fill-rule="evenodd" clip-rule="evenodd" d="M15.8381 12.9661C16.4566 12.9661 16.9757 13.4766 16.8811 14.0874C16.3263 17.6807 13.2502 20.3487 9.54009 20.3487C5.43536 20.3487 2.10834 17.0217 2.10834 12.9179C2.10834 9.53685 4.67693 6.38737 7.56878 5.67527C8.19018 5.52185 8.82702 5.95895 8.82702 6.59869C8.82702 10.9331 8.97272 12.0543 9.79579 12.6641C10.6189 13.274 11.5867 12.9661 15.8381 12.9661Z" stroke-linecap="round" stroke-linejoin="round"/>
<path fill-rule="evenodd" clip-rule="evenodd" d="M19.8848 9.35666C19.934 6.57192 16.5134 2.08315 12.345 2.16035C12.0208 2.16614 11.7612 2.43631 11.7468 2.75956C11.6416 5.04929 11.7834 8.01639 11.8626 9.36149C11.8867 9.78025 12.2157 10.1093 12.6335 10.1334C14.0162 10.2125 17.0914 10.3206 19.3483 9.97903C19.6552 9.93271 19.88 9.6664 19.8848 9.35666Z" stroke-linecap="round" stroke-linejoin="round"/>
</g>
<defs>
<clipPath id="clip0_1_1508">
<rect width="22" height="22" fill="white" transform="translate(0 0.234375)"/>
</clipPath>
</defs>
</svg>
