<svg width="17" height="17" viewBox="0 0 17 17" fill="none" xmlns="http://www.w3.org/2000/svg">
<g clip-path="url(#clip0_1_360)">
<path d="M13.8677 7.15588C13.8677 7.15588 13.5057 11.6459 13.2957 13.5373C13.1957 14.4406 12.6377 14.9699 11.7237 14.9866C9.98431 15.0179 8.24298 15.0199 6.50431 14.9833C5.62498 14.9653 5.07631 14.4293 4.97831 13.5419C4.76698 11.6339 4.40698 7.15588 4.40698 7.15588" stroke="#FF5E5E" stroke-linecap="round" stroke-linejoin="round"/>
<path d="M14.7899 5.00354H3.4845" stroke="#FF5E5E" stroke-linecap="round" stroke-linejoin="round"/>
<path d="M12.6115 5.00349C12.0881 5.00349 11.6375 4.63349 11.5348 4.12082L11.3728 3.31016C11.2728 2.93616 10.9342 2.67749 10.5482 2.67749H7.72617C7.34017 2.67749 7.0015 2.93616 6.9015 3.31016L6.7395 4.12082C6.63684 4.63349 6.18617 5.00349 5.66284 5.00349" stroke="#FF5E5E" stroke-linecap="round" stroke-linejoin="round"/>
</g>
<defs>
<clipPath id="clip0_1_360">
<rect width="16" height="16" fill="white" transform="translate(0.984375 0.84375)"/>
</clipPath>
</defs>
</svg>
