<svg width="21" height="21" viewBox="0 0 21 21" fill="none" xmlns="http://www.w3.org/2000/svg">
<g clip-path="url(#clip0_1_148)">
<path d="M17.1287 2.71875H16.375V2.09375C16.375 1.92799 16.3092 1.76902 16.1919 1.65181C16.0747 1.5346 15.9158 1.46875 15.75 1.46875C15.5842 1.46875 15.4253 1.5346 15.3081 1.65181C15.1908 1.76902 15.125 1.92799 15.125 2.09375V2.71875H11.375V2.09375C11.375 1.92799 11.3092 1.76902 11.1919 1.65181C11.0747 1.5346 10.9158 1.46875 10.75 1.46875C10.5842 1.46875 10.4253 1.5346 10.3081 1.65181C10.1908 1.76902 10.125 1.92799 10.125 2.09375V2.71875H6.375V2.09375C6.375 1.92799 6.30915 1.76902 6.19194 1.65181C6.07473 1.5346 5.91576 1.46875 5.75 1.46875C5.58424 1.46875 5.42527 1.5346 5.30806 1.65181C5.19085 1.76902 5.125 1.92799 5.125 2.09375V2.71875H4.37125C3.74266 2.71974 3.1401 2.96989 2.69562 3.41437C2.25114 3.85885 2.00099 4.46141 2 5.09V17.8475C2.00099 18.476 2.25114 19.0786 2.69562 19.5231C3.1401 19.9676 3.74266 20.2178 4.37125 20.2188H17.1287C17.7573 20.2178 18.3599 19.9676 18.8044 19.5231C19.2489 19.0786 19.499 18.476 19.5 17.8475V5.09C19.499 4.46141 19.2489 3.85885 18.8044 3.41437C18.3599 2.96989 17.7573 2.71974 17.1287 2.71875ZM18.25 17.8475C18.249 18.1446 18.1306 18.4291 17.9205 18.6392C17.7104 18.8493 17.4258 18.9678 17.1287 18.9688H4.37125C4.07418 18.9678 3.78956 18.8493 3.5795 18.6392C3.36944 18.4291 3.25099 18.1446 3.25 17.8475V5.09C3.25099 4.79293 3.36944 4.50831 3.5795 4.29825C3.78956 4.08819 4.07418 3.96974 4.37125 3.96875H5.125V4.59375C5.125 4.75951 5.19085 4.91848 5.30806 5.03569C5.42527 5.1529 5.58424 5.21875 5.75 5.21875C5.91576 5.21875 6.07473 5.1529 6.19194 5.03569C6.30915 4.91848 6.375 4.75951 6.375 4.59375V3.96875H10.125V4.59375C10.125 4.75951 10.1908 4.91848 10.3081 5.03569C10.4253 5.1529 10.5842 5.21875 10.75 5.21875C10.9158 5.21875 11.0747 5.1529 11.1919 5.03569C11.3092 4.91848 11.375 4.75951 11.375 4.59375V3.96875H15.125V4.59375C15.125 4.75951 15.1908 4.91848 15.3081 5.03569C15.4253 5.1529 15.5842 5.21875 15.75 5.21875C15.9158 5.21875 16.0747 5.1529 16.1919 5.03569C16.3092 4.91848 16.375 4.75951 16.375 4.59375V3.96875H17.1287C17.4258 3.96974 17.7104 4.08819 17.9205 4.29825C18.1306 4.50831 18.249 4.79293 18.25 5.09V17.8475Z" fill="#0D99FF"/>
<path d="M8.43311 7.90188L6.99999 9.33501L6.19186 8.52688C6.13421 8.46719 6.06524 8.41957 5.98899 8.38682C5.91274 8.35406 5.83073 8.33682 5.74774 8.3361C5.66475 8.33538 5.58245 8.35119 5.50564 8.38262C5.42883 8.41404 5.35905 8.46045 5.30037 8.51913C5.24168 8.57782 5.19528 8.6476 5.16385 8.72441C5.13243 8.80122 5.11661 8.88352 5.11733 8.96651C5.11805 9.04949 5.1353 9.13151 5.16805 9.20776C5.20081 9.28401 5.24842 9.35298 5.30811 9.41063L6.55811 10.6606C6.67532 10.7778 6.83426 10.8436 6.99999 10.8436C7.16572 10.8436 7.32466 10.7778 7.44186 10.6606L9.31686 8.78563C9.43071 8.66775 9.49371 8.50988 9.49229 8.346C9.49086 8.18213 9.42513 8.02537 9.30925 7.90949C9.19337 7.79361 9.03661 7.72788 8.87274 7.72646C8.70887 7.72503 8.55099 7.78803 8.43311 7.90188Z" fill="#0D99FF"/>
<path d="M15.75 8.96875H11.375C11.2092 8.96875 11.0503 9.0346 10.9331 9.15181C10.8158 9.26902 10.75 9.42799 10.75 9.59375C10.75 9.75951 10.8158 9.91848 10.9331 10.0357C11.0503 10.1529 11.2092 10.2188 11.375 10.2188H15.75C15.9158 10.2188 16.0747 10.1529 16.1919 10.0357C16.3092 9.91848 16.375 9.75951 16.375 9.59375C16.375 9.42799 16.3092 9.26902 16.1919 9.15181C16.0747 9.0346 15.9158 8.96875 15.75 8.96875Z" fill="#0D99FF"/>
<path d="M8.43311 13.5269L6.99999 14.96L6.19186 14.1519C6.13421 14.0922 6.06524 14.0446 5.98899 14.0119C5.91274 13.9791 5.83073 13.9619 5.74774 13.9611C5.66475 13.9604 5.58245 13.9762 5.50564 14.0077C5.42883 14.0391 5.35905 14.0855 5.30037 14.1442C5.24168 14.2029 5.19528 14.2726 5.16385 14.3494C5.13243 14.4263 5.11661 14.5086 5.11733 14.5915C5.11805 14.6745 5.1353 14.7565 5.16805 14.8328C5.20081 14.9091 5.24842 14.978 5.30811 15.0357L6.55811 16.2857C6.67532 16.4028 6.83426 16.4687 6.99999 16.4687C7.16572 16.4687 7.32466 16.4028 7.44186 16.2857L9.31686 14.4107C9.43071 14.2928 9.49371 14.1349 9.49229 13.971C9.49086 13.8072 9.42513 13.6504 9.30925 13.5345C9.19337 13.4187 9.03661 13.3529 8.87274 13.3515C8.70887 13.3501 8.55099 13.4131 8.43311 13.5269Z" fill="#0D99FF"/>
<path d="M15.75 14.5938H11.375C11.2092 14.5938 11.0503 14.6595 10.9331 14.7768C10.8158 14.894 10.75 15.0529 10.75 15.2188C10.75 15.3845 10.8158 15.5435 10.9331 15.6607C11.0503 15.778 11.2092 15.8438 11.375 15.8438H15.75C15.9158 15.8438 16.0747 15.778 16.1919 15.6607C16.3092 15.5435 16.375 15.3845 16.375 15.2188C16.375 15.0529 16.3092 14.894 16.1919 14.7768C16.0747 14.6595 15.9158 14.5938 15.75 14.5938Z" fill="#0D99FF"/>
</g>
<defs>
<clipPath id="clip0_1_148">
<rect width="20" height="20" fill="white" transform="translate(0.75 0.84375)"/>
</clipPath>
</defs>
</svg>
