<svg width="13" height="21" viewBox="0 0 13 21" fill="none" xmlns="http://www.w3.org/2000/svg">
<g clip-path="url(#clip0_1_49)">
<path d="M11.9017 14.5512C11.9134 12.969 11.2879 11.7176 10.0403 10.8338C9.0767 10.1534 7.90734 9.79851 6.77632 9.45745C4.42024 8.74318 3.73677 8.36696 3.73677 7.24025C3.73677 5.98522 5.36778 5.53868 6.76405 5.53868C7.78091 5.53868 8.95081 5.85484 9.67735 6.32339L11.1177 4.09262C10.1682 3.47705 8.86862 3.05717 7.58533 2.92685V0.84375H4.92826V3.07293C2.56634 3.59251 1.07845 5.13621 1.07845 7.24025C1.07845 8.7138 1.69077 9.8824 2.89495 10.7066C3.81081 11.3358 4.92778 11.6737 6.00677 12.0009C8.31777 12.6994 9.25623 13.125 9.24555 14.5347L9.24549 14.5451C9.24549 15.7282 7.67755 16.1489 6.33426 16.1489C5.06536 16.1489 3.6855 15.5928 2.90332 14.766L0.973022 16.5919C1.96357 17.6395 3.40273 18.3801 4.9282 18.6705V20.8438H7.58533V18.7173C10.2099 18.3416 11.8991 16.7614 11.9017 14.5512Z"/>
</g>
<defs>
<clipPath id="clip0_1_49">
<rect width="12" height="20" fill="white" transform="translate(0.4375 0.84375)"/>
</clipPath>
</defs>
</svg>
