<svg width="22" height="23" viewBox="0 0 22 23" fill="none" xmlns="http://www.w3.org/2000/svg" stroke="#888888">
<path fill-rule="evenodd" clip-rule="evenodd" d="M8.79222 14.5802C12.1738 14.5802 15.0641 15.0926 15.0641 17.1395C15.0641 19.1864 12.1931 19.7135 8.79222 19.7135C5.40972 19.7135 2.52039 19.2057 2.52039 17.1578C2.52039 15.11 5.39047 14.5802 8.79222 14.5802Z"  stroke-linecap="round" stroke-linejoin="round"/>
<path fill-rule="evenodd" clip-rule="evenodd" d="M8.79223 11.6588C6.57206 11.6588 4.77173 9.85939 4.77173 7.63922C4.77173 5.41905 6.57206 3.61963 8.79223 3.61963C11.0115 3.61963 12.8118 5.41905 12.8118 7.63922C12.8201 9.85114 11.0326 11.6505 8.82064 11.6588H8.79223Z"  stroke-linecap="round" stroke-linejoin="round"/>
<path d="M15.1095 10.6155C16.5771 10.4092 17.7073 9.14971 17.7101 7.6253C17.7101 6.12288 16.6147 4.8762 15.1782 4.64062"  stroke-linecap="round" stroke-linejoin="round"/>
<path d="M17.0458 14.1451C18.4675 14.3569 19.4603 14.8555 19.4603 15.8822C19.4603 16.5889 18.9928 17.0473 18.2374 17.3342"  stroke-linecap="round" stroke-linejoin="round"/>
</svg>
