<svg width="25" height="25" viewBox="0 0 25 25" fill="none" xmlns="http://www.w3.org/2000/svg">
<g clip-path="url(#clip0_1_1442)">
<path fill-rule="evenodd" clip-rule="evenodd" d="M21.3692 8.01423L20.7467 6.93414C20.2202 6.02022 19.0532 5.70494 18.138 6.22934C17.7024 6.48596 17.1826 6.55877 16.6932 6.43171C16.2038 6.30464 15.7851 5.98814 15.5293 5.55199C15.3648 5.27477 15.2764 4.95901 15.273 4.63666C15.2879 4.11984 15.0929 3.61902 14.7325 3.24829C14.3721 2.87756 13.877 2.66848 13.36 2.6687H12.106C11.5995 2.66869 11.1138 2.87053 10.7565 3.22956C10.3992 3.5886 10.1997 4.07521 10.2021 4.58174C10.1871 5.62754 9.33498 6.46743 8.28907 6.46732C7.96671 6.46397 7.65096 6.37556 7.37373 6.21103C6.45856 5.68663 5.29161 6.00191 4.76504 6.91584L4.09685 8.01423C3.57091 8.92701 3.8819 10.0932 4.7925 10.623C5.3844 10.9647 5.74903 11.5963 5.74903 12.2797C5.74903 12.9632 5.3844 13.5947 4.7925 13.9365C3.88306 14.4626 3.57173 15.626 4.09685 16.536L4.72843 17.6253C4.97515 18.0705 5.3891 18.399 5.87869 18.5381C6.36828 18.6773 6.89314 18.6156 7.33712 18.3667C7.77358 18.112 8.29369 18.0422 8.78184 18.1729C9.26999 18.3035 9.68574 18.6237 9.93666 19.0623C10.1012 19.3396 10.1896 19.6553 10.193 19.9777C10.193 21.0342 11.0495 21.8907 12.106 21.8907H13.36C14.413 21.8907 15.268 21.0398 15.273 19.9868C15.2706 19.4787 15.4714 18.9907 15.8307 18.6314C16.19 18.2721 16.678 18.0713 17.1861 18.0738C17.5077 18.0824 17.8221 18.1704 18.1014 18.3301C19.0142 18.856 20.1804 18.545 20.7101 17.6344L21.3692 16.536C21.6243 16.0982 21.6943 15.5767 21.5637 15.087C21.4331 14.5974 21.1127 14.18 20.6735 13.9273C20.2343 13.6746 19.9139 13.2572 19.7833 12.7676C19.6527 12.278 19.7228 11.7565 19.9779 11.3186C20.1437 11.029 20.3839 10.7889 20.6735 10.623C21.5786 10.0935 21.8889 8.93411 21.3692 8.02339V8.01423Z" stroke-linecap="round" stroke-linejoin="round"/>
<path d="M12.7376 14.9158C14.1935 14.9158 15.3738 13.7356 15.3738 12.2797C15.3738 10.8237 14.1935 9.64349 12.7376 9.64349C11.2817 9.64349 10.1014 10.8237 10.1014 12.2797C10.1014 13.7356 11.2817 14.9158 12.7376 14.9158Z" stroke-linecap="round" stroke-linejoin="round"/>
</g>
<defs>
<clipPath id="clip0_1_1442">
<rect width="24" height="24" fill="white" transform="translate(0.5625 0.390625)"/>
</clipPath>
</defs>
</svg>
