<svg width="22" height="23" viewBox="0 0 22 23" fill="none" xmlns="http://www.w3.org/2000/svg" stroke="#888888">
<g clip-path="url(#clip0_1_1617)">
<path fill-rule="evenodd" clip-rule="evenodd" d="M16.3691 18.7938C18.086 18.7938 19.4784 17.4023 19.4793 15.6854V15.6836V13.2086C18.3454 13.2086 17.4269 12.2901 17.426 11.1561C17.426 10.0232 18.3445 9.10375 19.4784 9.10375L19.4793 6.62875C19.4812 4.91092 18.0906 3.51759 16.3737 3.51575H16.3682H5.63216C3.91433 3.51575 2.52191 4.90725 2.521 6.62509V9.1835C3.6155 9.145 4.53308 10.0012 4.57158 11.0956C4.5725 11.1158 4.57341 11.136 4.57341 11.1561C4.57433 12.2882 3.65858 13.2067 2.5265 13.2086H2.521V15.6836C2.52008 17.4005 3.9125 18.7938 5.62941 18.7938H16.3691Z"  stroke-linecap="round" stroke-linejoin="round"/>
<path fill-rule="evenodd" clip-rule="evenodd" d="M11.3403 8.38606L11.905 9.52914C11.96 9.64098 12.0663 9.71889 12.1901 9.73723L13.4523 9.92148C13.7649 9.96731 13.8887 10.3505 13.6632 10.5696L12.7502 11.4587C12.6603 11.5458 12.62 11.6714 12.6402 11.7952L12.8556 13.051C12.9087 13.3617 12.5833 13.5982 12.3047 13.4516L11.1762 12.8585C11.0653 12.7998 10.9333 12.7998 10.8224 12.8585L9.69491 13.4516C9.41533 13.5982 9.08991 13.3617 9.14308 13.051L9.3585 11.7952C9.37958 11.6714 9.33833 11.5458 9.2485 11.4587L8.33641 10.5696C8.11091 10.3505 8.23466 9.96731 8.54633 9.92148L9.80858 9.73723C9.93233 9.71889 10.0396 9.64098 10.0946 9.52914L10.6583 8.38606C10.7977 8.10373 11.201 8.10373 11.3403 8.38606Z"  stroke-linecap="round" stroke-linejoin="round"/>
</g>
<defs>
<clipPath id="clip0_1_1617">
<rect width="22" height="22" fill="white" transform="translate(0 0.078125)"/>
</clipPath>
</defs>
</svg>
