<svg width="11" height="14" viewBox="0 0 11 14" fill="none" xmlns="http://www.w3.org/2000/svg">
<path d="M6.04688 3.76562C6.04688 4.12109 6.30078 4.375 6.65625 4.375H10.1094V12.7031C10.1094 13.0586 9.83008 13.3125 9.5 13.3125H0.96875C0.613281 13.3125 0.359375 13.0586 0.359375 12.7031V0.921875C0.359375 0.591797 0.613281 0.3125 0.96875 0.3125H6.04688V3.76562ZM7.57031 6.48242C7.69727 6.2793 7.54492 6 7.31641 6.02539H6.42773C6.30078 6.02539 6.19922 6.07617 6.14844 6.17773C5.38672 7.625 5.23438 7.9043 5.23438 7.9043C4.80273 7.01562 4.95508 7.42188 4.29492 6.17773C4.24414 6.07617 4.14258 6.02539 4.01562 6.02539H3.15234C2.89844 6.02539 2.74609 6.2793 2.87305 6.48242L4.42188 8.86914L2.87305 11.2305C2.74609 11.4336 2.89844 11.7129 3.15234 11.7129H4.01562C4.14258 11.7129 4.24414 11.6367 4.29492 11.5352C4.98047 10.291 5.05664 10.1641 5.23438 9.7832C5.23438 9.7832 5.64062 10.6211 6.14844 11.5352C6.19922 11.6367 6.30078 11.6875 6.42773 11.6875H7.31641C7.54492 11.6875 7.69727 11.4336 7.57031 11.2305L6.04688 8.84375L7.57031 6.48242ZM10.1094 3.41016V3.5625H6.85938V0.3125H7.01172C7.16406 0.3125 7.31641 0.388672 7.44336 0.490234L9.93164 2.97852C10.0332 3.10547 10.1094 3.25781 10.1094 3.41016Z"/>
</svg>
