<svg width="25" height="25" viewBox="0 0 25 25" fill="none" xmlns="http://www.w3.org/2000/svg">
<path d="M18.3438 8.39062C18.3438 6.79932 17.7116 5.2732 16.5863 4.14798C15.4611 3.02277 13.9351 2.39062 12.3438 2.39062C10.7524 2.39062 9.22633 3.02277 8.10111 4.14798C6.97589 5.2732 6.34375 6.79932 6.34375 8.39062C6.34375 15.3906 3.34375 17.3906 3.34375 17.3906H21.3438C21.3438 17.3906 18.3438 15.3906 18.3438 8.39062Z" stroke-linecap="round" stroke-linejoin="round"/>
<path d="M14.0738 21.3906C13.898 21.6937 13.6457 21.9453 13.342 22.1201C13.0384 22.295 12.6942 22.3871 12.3438 22.3871C11.9934 22.3871 11.6492 22.295 11.3456 22.1201C11.042 21.9453 10.7896 21.6937 10.6138 21.3906" stroke-linecap="round" stroke-linejoin="round"/>
</svg>
