<svg width="16" height="16" viewBox="0 0 16 16" fill="none" xmlns="http://www.w3.org/2000/svg" stroke="#888888">
<g clip-path="url(#clip0_1_1608)">
<path d="M6.46932 12.5383H0.693665"  stroke-linecap="round" stroke-linejoin="round"/>
<path d="M9.04547 3.65344H14.8211"  stroke-linecap="round" stroke-linejoin="round"/>
<path fill-rule="evenodd" clip-rule="evenodd" d="M4.99912 3.60385C4.99912 2.41617 4.02914 1.45312 2.8329 1.45312C1.63667 1.45312 0.666687 2.41617 0.666687 3.60385C0.666687 4.79154 1.63667 5.75459 2.8329 5.75459C4.02914 5.75459 4.99912 4.79154 4.99912 3.60385Z"  stroke-linecap="round" stroke-linejoin="round"/>
<path fill-rule="evenodd" clip-rule="evenodd" d="M15.3333 12.5025C15.3333 11.3148 14.3641 10.3517 13.1679 10.3517C11.9709 10.3517 11.0009 11.3148 11.0009 12.5025C11.0009 13.6901 11.9709 14.6532 13.1679 14.6532C14.3641 14.6532 15.3333 13.6901 15.3333 12.5025Z"  stroke-linecap="round" stroke-linejoin="round"/>
</g>
<defs>
<clipPath id="clip0_1_1608">
<rect width="16" height="15" fill="white" transform="translate(0 0.328125)"/>
</clipPath>
</defs>
</svg>
