<svg width="22" height="23" viewBox="0 0 22 23" fill="none" xmlns="http://www.w3.org/2000/svg" stroke="#888888">
<path d="M10.5346 3.25977H7.1072C4.28845 3.25977 2.52112 5.25535 2.52112 8.08052V15.7017C2.52112 18.5269 4.2802 20.5224 7.1072 20.5224H15.1959C18.0238 20.5224 19.7829 18.5269 19.7829 15.7017V12.0094"  stroke-linecap="round" stroke-linejoin="round"/>
<path fill-rule="evenodd" clip-rule="evenodd" d="M8.09214 10.714L14.9424 3.86374C15.7958 3.01124 17.1791 3.01124 18.0325 3.86374L19.1481 4.97932C20.0015 5.83274 20.0015 7.21691 19.1481 8.06941L12.2648 14.9527C11.8917 15.3258 11.3857 15.5357 10.8577 15.5357H7.42389L7.51006 12.0707C7.52289 11.561 7.73097 11.0752 8.09214 10.714Z"  stroke-linecap="round" stroke-linejoin="round"/>
<path d="M13.9014 4.92212L18.0869 9.10762"  stroke-linecap="round" stroke-linejoin="round"/>
</svg>
