<svg width="22" height="23" viewBox="0 0 22 23" fill="none" xmlns="http://www.w3.org/2000/svg" stroke="#888888">
<g clip-path="url(#clip0_1_1591)">
<path fill-rule="evenodd" clip-rule="evenodd" d="M2.75 6.05208C2.75 3.64564 2.77577 2.84375 5.95833 2.84375C9.1409 2.84375 9.16667 3.64564 9.16667 6.05208C9.16667 8.45853 9.17682 9.26042 5.95833 9.26042C2.73985 9.26042 2.75 8.45853 2.75 6.05208Z"  stroke-linecap="round" stroke-linejoin="round"/>
<path fill-rule="evenodd" clip-rule="evenodd" d="M12.8333 6.05208C12.8333 3.64564 12.8591 2.84375 16.0416 2.84375C19.2242 2.84375 19.25 3.64564 19.25 6.05208C19.25 8.45853 19.2601 9.26042 16.0416 9.26042C12.8232 9.26042 12.8333 8.45853 12.8333 6.05208Z"  stroke-linecap="round" stroke-linejoin="round"/>
<path fill-rule="evenodd" clip-rule="evenodd" d="M2.75 16.1354C2.75 13.7289 2.77577 12.927 5.95833 12.927C9.1409 12.927 9.16667 13.7289 9.16667 16.1354C9.16667 18.5418 9.17682 19.3437 5.95833 19.3437C2.73985 19.3437 2.75 18.5418 2.75 16.1354Z"  stroke-linecap="round" stroke-linejoin="round"/>
<path fill-rule="evenodd" clip-rule="evenodd" d="M12.8333 16.1354C12.8333 13.7289 12.8591 12.927 16.0416 12.927C19.2242 12.927 19.25 13.7289 19.25 16.1354C19.25 18.5418 19.2601 19.3437 16.0416 19.3437C12.8232 19.3437 12.8333 18.5418 12.8333 16.1354Z"  stroke-linecap="round" stroke-linejoin="round"/>
</g>
<defs>
<clipPath id="clip0_1_1591">
<rect width="22" height="22" fill="white" transform="translate(0 0.09375)"/>
</clipPath>
</defs>
</svg>
